<svg xmlns="http://www.w3.org/2000/svg" width="93" height="93" viewBox="0 0 93 93">
    <path fill="#FF9800" fill-rule="evenodd" d="M53.4 68.6l-7.2-7.2-7.2 7.2c-.67.68-.5.93-1.4.93l-1.03.1c-.88 0-1.76-.35-2.43-1.02-1.34-1.3-1.34-3.5 0-4.8l6.25-6.24c-2.3-.62-4.5-1.56-6.6-2.85-1.78-1.12-2.3-3.47-1.2-5.26 1.12-1.8 3.5-2.32 5.26-1.2 5.32 3.35 12.2 3.36 17.5 0 1.8-1.1 4.15-.6 5.27 1.2 1.1 1.78.58 4.14-1.2 5.26-2.3 1.4-4.77 2.4-7.33 3l6.1 6.1c1.34 1.33 1.34 3.5 0 4.85-1.35 1.35-3.5 1.35-4.86 0M33.44 33.1c0-7.03 5.73-12.75 12.76-12.75 7.02 0 12.74 5.72 12.74 12.74 0 7-5.72 12.7-12.74 12.7-7.03 0-12.75-5.7-12.75-12.77m-19.92-19.5c-17.97 17.95-17.97 47.07 0 65.04 17.96 17.96 47.08 17.97 65.05 0 17.96-17.96 17.96-47.1 0-65.05-17.97-17.97-47.1-17.97-65.05 0zm32.67 14.3c-2.9 0-5.28 2.35-5.28 5.25s2.37 5.27 5.28 5.27c2.9 0 5.27-2.37 5.27-5.28 0-2.9-2.36-5.28-5.27-5.28"/>
</svg>
