<?xml version="1.0" encoding="UTF-8"?>
<svg width="12px" height="12px" viewBox="0 0 12 12" version="1.1" xmlns="http://www.w3.org/2000/svg" xmlns:xlink="http://www.w3.org/1999/xlink">
    <!-- Generator: Sketch 44.1 (41455) - http://www.bohemiancoding.com/sketch -->
    <title>ok</title>
    <desc>Created with Sketch.</desc>
    <defs>
        <path d="M0,6 C0,9.3142284 2.6857716,12 6,12 C9.31336868,12 12,9.3142284 12,6 C12,2.68663132 9.31336868,0 6,0 C2.6857716,0 0,2.68663132 0,6 Z" id="path-1"></path>
    </defs>
    <g id="icons" stroke="none" stroke-width="1" fill="none" fill-rule="evenodd">
        <g id="Fill-1">
            <use fill="#FF9800" fill-rule="evenodd" xlink:href="#path-1"></use>
            <path stroke="#FFFFFF" stroke-width="0.5" d="M0.25,6 C0.25,9.17615721 2.82384279,11.75 6,11.75 C9.17559997,11.75 11.75,9.17585476 11.75,6 C11.75,2.82470251 9.17529749,0.25 6,0.25 C2.82414524,0.25 0.25,2.82440003 0.25,6 Z"></path>
        </g>
        <g id="Group-24" transform="translate(1.899902, 1.500000)" fill="#FFFFFF">
            <path d="M6.02819204,6.87708976 L4.55572045,6.87708976 L4.55572045,8.34956135 C4.55572045,8.48650453 4.5982659,8.49581135 4.50852158,8.58555567 L4.41013522,8.70122613 C4.3203909,8.79097044 4.1960784,8.84614658 4.05913522,8.84681135 C3.78458408,8.84681135 3.56254999,8.62411249 3.56188522,8.34956135 L3.56188522,7.07053863 C3.26406704,7.24005567 2.94165226,7.36902158 2.60062385,7.44679999 C2.30413522,7.51394203 2.00897613,7.32847044 1.94116931,7.03131703 C1.87336249,6.7348284 2.05883408,6.43900453 2.35665226,6.37186249 C3.24345908,6.16910681 3.94545908,5.46777158 4.14754999,4.57963522 C4.21535681,4.28314658 4.5105159,4.09701022 4.80766931,4.16481703 C5.10482272,4.23195908 5.29095908,4.52778294 5.22315226,4.82493635 C5.13606704,5.20452158 4.98316931,5.55884544 4.78373749,5.88325453 L6.02819204,5.88391931 C6.30274317,5.88325453 6.52544204,6.1059534 6.52477726,6.38050453 C6.52477726,6.65505567 6.30274317,6.87708976 6.02819204,6.87708976" id="Path" transform="translate(4.225987, 6.498843) rotate(45.000000) translate(-4.225987, -6.498843) "></path>
            <path d="M2.88773766,4.20706834 C2.16999655,3.48844902 2.16999655,2.31911379 2.88773766,1.60049447 C3.60547876,0.881875155 4.77338496,0.881875155 5.49112607,1.60049447 C6.20886717,2.31911379 6.20886717,3.48844902 5.49112607,4.20706834 C4.77338496,4.92568766 3.60547876,4.92568766 2.88773766,4.20706834 Z M3.65062806,2.36431834 C3.35317384,2.66147175 3.35317384,3.14609106 3.65062806,3.44324447 C3.94741833,3.74106266 4.4314454,3.74106266 4.72823566,3.44324447 C5.02568988,3.14609106 5.02568988,2.66147175 4.72823566,2.36431834 C4.4314454,2.06716493 3.94808229,2.06650016 3.65062806,2.36431834 Z" id="Combined-Shape" transform="translate(4.189432, 2.903781) rotate(45.000000) translate(-4.189432, -2.903781) "></path>
        </g>
    </g>
</svg>